<svg xmlns="http://www.w3.org/2000/svg" viewBox="0 0 800 800" role="img" aria-label="Ilustración del prototipo: Magic Keyboard para el iPad Pro de 11 pulgadas M4"><rect width="800" height="800" fill="#f5f5f7"/><rect x="140" y="180" width="520" height="160" rx="18" fill="#1d1d1f"/><rect x="150" y="190" width="500" height="20" rx="4" fill="#2c2c2e"/><g fill="#3a3a3c">
<rect x="160" y="220" width="40" height="34" rx="6"/><rect x="210" y="220" width="40" height="34" rx="6"/><rect x="260" y="220" width="40" height="34" rx="6"/><rect x="310" y="220" width="40" height="34" rx="6"/><rect x="360" y="220" width="40" height="34" rx="6"/><rect x="410" y="220" width="40" height="34" rx="6"/><rect x="460" y="220" width="40" height="34" rx="6"/><rect x="510" y="220" width="40" height="34" rx="6"/><rect x="560" y="220" width="40" height="34" rx="6"/><rect x="610" y="220" width="40" height="34" rx="6"/><rect x="160" y="264" width="70" height="34" rx="6"/><rect x="240" y="264" width="60" height="34" rx="6"/><rect x="310" y="264" width="90" height="34" rx="6"/><rect x="410" y="264" width="230" height="34" rx="6"/></g><rect x="240" y="360" width="320" height="16" rx="4" fill="#3a3a3c"/><rect x="220" y="380" width="360" height="180" rx="10" fill="#0a0a0a" stroke="#48484a" stroke-width="3"/><rect x="240" y="400" width="320" height="140" rx="4" fill="#1c1c1e"/><text x="400" y="640" font-family="-apple-system, system-ui, sans-serif" font-size="22" font-weight="700" text-anchor="middle" fill="#1d1d1f">Magic Keyboard · iPad Pro 11" (M4)</text><text x="400" y="670" font-family="-apple-system, system-ui, sans-serif" font-size="16" text-anchor="middle" fill="#6e6e73">Trackpad · Fila de función · Puerto USB-C</text><text x="400" y="770" font-family="-apple-system, system-ui, sans-serif" font-size="14" text-anchor="middle" fill="#8e8e93">Ilustración del prototipo</text></svg>
